:SAMPLES-PER-SECOND 30
:FULLY-SPECIFIED
:DEGREES
2174
root  -59.5695 34.6367 -3.15477 -2.00082 -81.0745 1.3653
RightUpLeg  -44.4062 -31.834 1.74748
RightLeg  54.3771 5.46245 7.73745
RightFoot  -8.23248 0.134591 -6.92162
RightToes  7.56698e-010 0 -3.6325e-017
Spine  75.7048 -10.6314 10.8391
Spine1  -11.4564 -3.09051 1.57257
HEad  -40.6213 -1.58905 -3.8715
LeftShoulder1  3.58098 -11.0999 -17.9291
LeftArm  -17.0095 -49.7286 -49.3825
LeftForeArm  -13.9803 -30.8121 -7.46376
LeftHand  0.00774904 4.23246 -3.69263
RightShoulder  1.50434 5.41682 9.51098
RightArm  -31.55 29.8656 17.3442
RightForeArm  -46.101 49.1968 15.4692
RightHand  0.525407 6.55146 4.74811
LeftUpLeg  -45.5248 26.8779 2.45457
LeftLeg  40.8172 -8.83075 -7.71179
LeftFoot  4.68891 0.120895 -1.06077
LeftToes  -2.88401e-009 5.30678e-011 -1.08654e-010
2175
root  -59.7648 34.2542 -2.99062 -2.92239 -77.9266 3.7843
RightUpLeg  -47.2432 -35.0816 1.44993
RightLeg  57.2529 5.07454 7.99841
RightFoot  -9.98451 0.00813888 -6.49975
RightToes  7.56698e-010 0 -3.6325e-017
Spine  76.4624 -14.0392 12.4879
Spine1  -10.9825 -5.03339 0.351032
HEad  -42.5104 -1.83517 -2.64479
LeftShoulder1  3.44714 -11.4648 -16.2908
LeftArm  -21.5212 -51.6617 -49.3178
LeftForeArm  -13.3375 -30.3468 -7.31136
LeftHand  0.0127814 3.63323 -2.21941
RightShoulder  1.40877 5.76926 7.66214
RightArm  -33.9749 32.9022 15.9294
RightForeArm  -45.7676 45.6752 13.7959
RightHand  0.407209 6.75219 3.53675
LeftUpLeg  -48.7935 23.9041 0.532079
LeftLeg  42.9217 -8.5187 -8.02403
LeftFoot  4.63329 0.0401614 -0.485683
LeftToes  -2.88401e-009 5.30678e-011 -1.08654e-010
2176
root  -59.9382 33.991 -2.97109 -2.31868 -76.2634 3.43433
RightUpLeg  -48.0149 -36.2407 1.14206
RightLeg  59.0861 4.51223 7.61052
RightFoot  -11.2649 -0.069159 -6.45824
RightToes  7.56698e-010 0 -3.6325e-017
Spine  78.6816 -16.3723 13.4113
Spine1  -10.8348 -5.85017 -1.2261
HEad  -44.0095 -2.59636 -1.85694
LeftShoulder1  3.27362 -12.0546 -14.1383
LeftArm  -26.0469 -53.1448 -49.2173
LeftForeArm  -12.143 -29.6509 -7.07443
LeftHand  0.01264 3.90685 -2.79911
RightShoulder  1.31897 5.89914 6.34649
RightArm  -37.1206 35.8046 13.6839
RightForeArm  -44.9616 41.8164 12.1796
RightHand  0.354409 7.05191 2.92008
LeftUpLeg  -50.3916 23.8525 -0.43292
LeftLeg  44.815 -9.25509 -9.33823
LeftFoot  4.15179 -0.0448029 0.144759
LeftToes  -2.88401e-009 5.30678e-011 -1.08654e-010
2177
root  -60.1922 33.8075 -3.09317 -3.5811 -75.5715 3.88818
RightUpLeg  -46.9011 -36.0162 -0.0320654
RightLeg  60.4488 3.88112 6.88336
RightFoot  -13.2473 -0.175778 -5.18993
RightToes  7.56698e-010 0 -3.6325e-017
Spine  82.6673 -17.5233 13.0439
Spine1  -11.5539 -6.11346 -2.30408
HEad  -44.5433 -1.99163 -0.0543559
LeftShoulder1  3.30476 -13.4597 -12.3832
LeftArm  -30.9697 -54.2686 -46.2961
LeftForeArm  -11.4615 -28.9971 -6.87591
LeftHand  0.0346914 2.94652 -2.44714
RightShoulder  1.25974 5.85809 5.70854
RightArm  -40.6409 38.57 10.6883
RightForeArm  -42.7018 38.4816 10.9199
RightHand  0.212323 5.62683 1.9241
LeftUpLeg  -50.3877 25.5568 -0.855213
LeftLeg  46.5479 -10.5467 -11.3122
LeftFoot  3.49005 -0.100777 0.61144
LeftToes  -2.88401e-009 5.30678e-011 -1.08654e-010
2178
root  -60.3924 33.5349 -3.09459 -2.45834 -73.6731 3.18335
RightUpLeg  -47.825 -37.5201 -0.287494
RightLeg  62.6488 3.66512 7.09938
RightFoot  -14.5113 -0.225693 -4.54979
RightToes  7.56698e-010 0 -3.6325e-017
Spine  84.4336 -19.43 13.754
Spine1  -11.7602 -6.94932 -2.39953
HEad  -45.1694 -1.89504 1.11465
LeftShoulder1  3.09223 -13.6664 -10.7552
LeftArm  -35.0042 -55.6679 -44.3504
LeftForeArm  -12.015 -28.5612 -6.79447
LeftHand  -0.0187473 4.14806 -2.16411
RightShoulder  1.21568 6.51021 4.22897
RightArm  -45.4927 40.8001 7.06212
RightForeArm  -38.6808 35.2818 9.75413
RightHand  0.10224 5.03583 0.808831
LeftUpLeg  -52.0586 24.8171 -1.50127
LeftLeg  48.4992 -10.9103 -12.5265
LeftFoot  2.93985 -0.143391 1.00173
LeftToes  -2.88401e-009 5.30678e-011 -1.08654e-010
2179
root  -60.5874 33.2844 -3.19042 -3.0444 -72.7707 3.89978
RightUpLeg  -48.4498 -37.8569 -0.588853
RightLeg  64.472 3.00706 6.24794
RightFoot  -15.5486 -0.296304 -5.21462
RightToes  7.56698e-010 0 -3.6325e-017
Spine  86.3754 -20.5869 13.4338
Spine1  -11.0509 -7.55443 -3.62926
HEad  -45.5805 -1.57745 3.03303
LeftShoulder1  2.74149 -13.6561 -8.49748
LeftArm  -39.7979 -57.5353 -41.306
LeftForeArm  -11.5514 -27.9942 -6.6324
LeftHand  -0.138322 7.77263 -4.4953
RightShoulder  1.21333 7.56932 2.85838
RightArm  -50.2146 42.8328 2.75118
RightForeArm  -35.7933 31.569 8.62676
RightHand  -0.03701 4.64411 -0.708124
LeftUpLeg  -53.1554 25.1985 -2.10984
LeftLeg  50.2142 -11.2826 -13.7566
LeftFoot  2.40131 -0.179955 1.37474
LeftToes  -2.88401e-009 5.30678e-011 -1.08654e-010
2180
root  -60.7956 33.0738 -3.30947 -3.75699 -72.3609 3.85205
RightUpLeg  -47.6648 -37.7163 -1.34418
RightLeg  66.0105 2.64334 5.84034
RightFoot  -16.7825 -0.361465 -5.22168
RightToes  7.56698e-010 0 -3.6325e-017
Spine  89.4623 -21.3327 12.6783
Spine1  -11.3185 -7.87384 -4.60804
HEad  -45.3494 -1.69037 4.52236
LeftShoulder1  2.63659 -14.0214 -7.45361
LeftArm  -44.0821 -58.9719 -37.3696
LeftForeArm  -10.8673 -27.2054 -6.40834
LeftHand  -0.0230542 5.04037 -2.5842
RightShoulder  1.09227 7.75126 1.44684
RightArm  -52.5858 45.9321 -0.139558
RightForeArm  -37.1286 25.1807 6.88253
RightHand  -0.103084 6.68285 -1.33794
LeftUpLeg  -53.2016 26.2821 -2.00085
LeftLeg  51.9578 -11.7363 -15.1945
LeftFoot  1.87596 -0.238849 1.95888
LeftToes  -2.88401e-009 5.30678e-011 -1.08654e-010
2181
root  -60.998 32.8518 -3.37996 -3.63354 -71.2204 4.20068
RightUpLeg  -48.5086 -38.3841 -1.44073
RightLeg  67.5776 2.33464 5.50666
RightFoot  -17.7744 -0.419156 -5.30812
RightToes  7.56698e-010 0 -3.6325e-017
Spine  90.9746 -22.7191 12.497
Spine1  -11.5768 -8.7282 -5.94263
HEad  -45.6821 -1.21285 6.47707
LeftShoulder1  2.47037 -14.5124 -5.95037
LeftArm  -49.2427 -59.8397 -33.003
LeftForeArm  -11.5698 -26.4575 -6.26324
LeftHand  -0.00264043 4.05046 -1.53657
RightShoulder  0.989614 8.13199 0.0710282
RightArm  -54.7659 48.0651 -1.81472
RightForeArm  -38.5543 21.2368 5.01507
RightHand  -0.17869 7.48539 -1.97512
LeftUpLeg  -54.5517 25.911 -2.57854
LeftLeg  53.3522 -11.6749 -15.8911
LeftFoot  1.98859 -0.338784 2.79772
LeftToes  -2.88401e-009 5.30678e-011 -1.08654e-010
